<?xml version="1.0" encoding="UTF-8" standalone="no"?>
<!-- Created with Inkscape (http://www.inkscape.org/) -->

<svg
   viewBox="50 50 150 80"  
   preserveAspectRatio="xMidYMid meet"
   style="max-width: 100%; height: auto;"
   version="1.1"
   id="svg1"
   xml:space="preserve"
   inkscape:version="1.3.2 (091e20e, 2023-11-25, custom)"
   sodipodi:docname="logotipo.svg"
   xmlns:inkscape="http://www.inkscape.org/namespaces/inkscape"
   xmlns:sodipodi="http://sodipodi.sourceforge.net/DTD/sodipodi-0.dtd"
   xmlns="http://www.w3.org/2000/svg"
   xmlns:svg="http://www.w3.org/2000/svg"><sodipodi:namedview
     id="namedview1"
     pagecolor="#ffffff"
     bordercolor="#000000"
     borderopacity="0.25"
     inkscape:showpageshadow="2"
     inkscape:pageopacity="0.0"
     inkscape:pagecheckerboard="0"
     inkscape:deskcolor="#d1d1d1"
     inkscape:document-units="mm"
     inkscape:zoom="0.81962655"
     inkscape:cx="424.58361"
     inkscape:cy="552.69073"
     inkscape:window-width="958"
     inkscape:window-height="1000"
     inkscape:window-x="953"
     inkscape:window-y="0"
     inkscape:window-maximized="0"
     inkscape:current-layer="layer1" /><defs
     id="defs1" /><g
     inkscape:label="Capa 1"
     inkscape:groupmode="layer"
     id="layer1"><path
       style="fill:#000000;stroke-width:1.55828;stroke-dasharray:none"
       d="m 83.792975,111.28754 c -1.814959,-1.38796 -2.149546,-5.0797 -0.610333,-6.73435 0.333287,-0.35827 1.167691,-0.78795 1.854248,-0.95484 l 1.248273,-0.30339 -1.124414,-0.30425 c -1.847023,-0.49978 -2.703361,-2.39737 -2.1197,-4.69725 0.602257,-2.373077 1.10367,-2.645908 4.313843,-2.347113 2.021457,0.188134 14.052728,0.221672 21.973018,0.06122 1.56677,-0.03168 1.8942,0.06833 2.07833,0.634928 0.31527,0.970355 -0.9696,1.95937 -2.74273,2.111225 -3.25003,0.278317 -15.929201,0.302056 -19.257689,0.03603 -1.94435,-0.155379 -3.664249,-0.207868 -3.822007,-0.116232 -0.453793,0.263039 0.147844,1.653377 1.108234,2.561277 0.811016,0.76662 0.993765,0.77556 2.394449,0.11714 0.834036,-0.3921 2.639861,-0.74823 4.012949,-0.79138 3.282539,-0.10314 14.888974,0.20339 16.830274,0.4445 1.50976,0.18753 1.53292,0.16814 2.66117,-2.234498 0.62597,-1.333041 1.07195,-2.532462 0.99112,-2.665355 -0.0811,-0.132976 -1.1128,-0.923234 -2.29316,-1.756278 -1.8811,-1.327613 -2.11116,-1.644181 -1.86323,-2.563834 0.23238,-0.861954 -6.5e-4,-1.279005 -1.30594,-2.33704 -1.49762,-1.213941 -1.7151,-1.28405 -3.79005,-1.221811 -3.41873,0.10257 -11.824154,0.08538 -14.533522,-0.02965 -2.152715,-0.09138 -2.511893,-0.204206 -3.016329,-0.9473 -0.543513,-0.800663 -0.578543,-0.784403 -0.689014,0.319562 -0.163709,1.635449 -2.599751,2.771263 -4.759758,2.219208 -1.679814,-0.429335 -3.438679,-2.348011 -3.536749,-3.858082 -0.101514,-1.56296 1.775641,-3.177848 4.098025,-3.525456 1.200103,-0.179605 2.316892,-0.623867 2.530896,-1.006702 0.355821,-0.636561 0.270257,-0.675439 -1.205083,-0.547561 -2.361416,0.204684 -3.967625,-0.320729 -5.232385,-1.711533 -1.971344,-2.167859 -1.454659,-5.145354 1.13076,-6.516262 2.448617,-1.298381 5.225009,-0.562197 6.995817,1.854998 l 0.969213,1.323003 3.772141,-0.144632 c 6.219992,-0.238481 13.962908,-0.06776 15.576538,0.343449 1.34605,0.343036 1.4862,0.495445 1.26322,1.374058 -0.13794,0.543533 -0.33859,0.965761 -0.44493,0.938629 -0.24373,-0.06221 -14.598934,-0.133495 -17.907055,-0.08888 -2.105166,0.02839 -2.562688,0.193229 -3.208271,1.155648 -0.543046,0.809543 -0.640549,1.193843 -0.34974,1.37838 0.221774,0.140739 1.045271,1.158234 1.830008,2.261114 0.784726,1.102865 1.528285,2.031164 1.652377,2.062876 0.124076,0.03175 3.089974,0.126775 6.59088,0.211247 3.500887,0.08448 6.985001,0.311969 7.742411,0.505562 1.34682,0.344233 1.37605,0.323113 1.32942,-0.959608 -0.038,-1.046517 0.35125,-1.861521 1.92612,-4.032757 2.45987,-3.391268 3.07701,-4.170376 4.48189,-5.658085 0.61637,-0.652754 2.45264,-2.676621 4.08054,-4.497477 1.62793,-1.820868 3.97464,-4.233826 5.21489,-5.362143 3.13646,-2.863159 1.95765,-4.452951 6.40306,-1.907251 1.04831,0.618441 3.26875,1.658763 4.93432,2.311826 1.6656,0.653074 3.10238,1.308992 3.19281,1.457603 0.3398,0.558403 -1.4001,2.387187 -7.25039,7.620739 -5.39574,4.826936 -9.25386,8.813569 -8.94472,9.242761 0.0616,0.08555 1.75877,1.288901 3.77141,2.674002 2.01265,1.385122 4.64253,3.196301 5.84424,4.024864 2.83185,1.952592 2.99442,2.494128 1.24089,4.133315 -2.4626,2.301975 -5.37547,5.232192 -8.61291,8.664212 -1.85807,1.96974 -3.57488,3.42322 -4.16254,3.52405 -0.80402,0.13798 -1.4579,-0.21321 -3.33457,-1.79052 -1.94735,-1.63676 -2.53098,-1.94178 -3.51974,-1.83965 -1.96936,0.20347 -8.04684,0.12261 -11.528417,-0.15333 -3.376146,-0.26767 -8.321233,0.0477 -8.389998,0.53487 -0.02152,0.15151 0.432826,0.90964 1.009365,1.68466 l 1.048254,1.40916 5.761605,0.006 c 3.168871,0.003 7.004061,0.0641 8.522611,0.13565 1.51853,0.0717 3.91625,0.12059 5.32825,0.10891 3.68689,-0.0304 4.06875,0.12603 3.7149,1.52019 -0.3802,1.4979 -0.80803,1.58489 -6.79845,1.38209 -2.69563,-0.0912 -7.21672,-0.18788 -10.046897,-0.21477 -2.830164,-0.0266 -5.427733,-0.11853 -5.772369,-0.20359 -0.348883,-0.0858 -1.016297,0.41168 -1.505684,1.12299 -1.589758,2.31082 -5.114999,2.5618 -7.743964,0.55134 z m 5.285848,0.008 c 0.570789,-0.17852 1.332367,-0.85429 1.692384,-1.50181 0.623049,-1.12057 0.839887,-1.17666 4.497945,-1.1633 2.113851,0.008 7.200948,0.1084 11.304668,0.22374 4.10377,0.11535 7.69565,0.0624 7.98199,-0.11745 0.37053,-0.23283 0.21464,-0.3422 -0.54074,-0.37926 -3.80324,-0.18659 -11.58629,-0.34319 -15.641008,-0.31452 -5.808606,0.0409 -6.685249,-0.16109 -8.056103,-1.85684 -1.216615,-1.50493 -2.668123,-2.01533 -4.545131,-1.59817 -2.208895,0.49097 -2.98902,2.47516 -1.864041,4.74115 1.022187,2.05902 2.760106,2.72004 5.170038,1.96644 z m -4.76713,-1.9951 c -0.409521,-0.67293 -0.633678,-1.66047 -0.498147,-2.19456 0.30573,-1.20466 2.85699,-2.48336 4.246342,-2.12827 2.50684,0.64069 3.052439,4.99559 0.732404,5.84595 -1.606416,0.58874 -3.60984,-0.0923 -4.480609,-1.52309 z m 4.058308,0.41222 c 1.085991,-0.49501 1.129448,-0.59109 0.810497,-1.79228 -0.403153,-1.51824 -1.766138,-2.19048 -3.074959,-1.51665 -1.257493,0.64741 -1.47623,1.70898 -0.56595,2.74662 0.965276,1.10031 1.442233,1.19508 2.830376,0.56251 z m -3.634726,-9.12372 c -0.266065,-0.625374 -0.602472,-0.964652 -0.747566,-0.753952 -0.145108,0.210682 0.0079,0.705842 0.340211,1.100312 0.864057,1.02604 0.957451,0.94661 0.407355,-0.34636 z m 7.639432,1.43553 c 0.674394,-0.33301 -0.751316,-0.22815 -1.522399,0.11215 -0.885931,0.39079 -0.87514,0.40232 0.189034,0.20174 0.620727,-0.11701 1.220737,-0.25823 1.333368,-0.31384 z m 4.258767,-0.16118 c -0.100879,-0.16565 -0.445403,-0.26867 -0.76577,-0.22896 -0.354048,0.0438 -0.282172,0.162 0.183268,0.30115 0.421166,0.1259 0.683367,0.093 0.582451,-0.0725 z m 9.040966,0.47982 c 2.48064,-0.0357 4.24008,-0.14853 3.90982,-0.25059 -0.33023,-0.10219 -1.28181,-0.16381 -2.11477,-0.13556 -0.83288,0.0275 -3.31674,-0.0357 -5.51965,-0.14186 -2.202966,-0.10564 -4.136329,-0.10929 -4.296451,-0.008 -0.53158,0.33571 3.449661,0.60182 8.021051,0.53618 z M 86.676236,97.43478 c 0.570482,0.127504 0.825788,0.07986 0.567398,-0.106442 -0.698417,-0.503049 -2.559525,-0.427815 -2.69574,0.108922 -0.09009,0.354702 0.02672,0.382619 0.486411,0.115743 0.332632,-0.192793 1.071555,-0.246193 1.642048,-0.118625 z m 30.909814,8.24892 c 0.28519,-0.21648 1.7932,-1.7726 3.35117,-3.45805 3.12907,-3.38515 6.31124,-6.589334 7.94471,-7.99973 0.58523,-0.505281 1.01713,-0.991416 0.95973,-1.080276 -0.0574,-0.0888 -2.32363,-1.706257 -5.03611,-3.594215 -6.62655,-4.612197 -7.39668,-5.292684 -7.20169,-6.363579 0.0892,-0.487399 0.26522,-0.780713 0.39221,-0.651627 0.127,0.129087 0.8936,-0.560069 1.70379,-1.531463 0.81018,-0.971392 4.29003,-4.27621 7.73293,-7.344043 3.44294,-3.06784 6.29696,-5.724018 6.3423,-5.90262 0.0454,-0.178563 -0.41634,-0.455498 -1.02595,-0.615321 -0.60958,-0.15982 -2.31058,-0.888593 -3.78,-1.619483 -4.81685,-2.395913 -5.16427,-2.516564 -5.3329,-1.852034 -0.0842,0.332765 -1.05059,1.389158 -2.14696,2.347655 -1.09639,0.958491 -3.17555,3.0808 -4.62037,4.716244 -1.44481,1.635433 -3.38649,3.676698 -4.3149,4.536129 -0.92833,0.859452 -1.64026,1.709221 -1.58204,1.888388 0.0583,0.179186 1.55043,1.322366 3.31606,2.540443 1.76556,1.218068 2.99157,2.228977 2.7244,2.246457 -0.26716,0.01756 -1.85796,-0.893249 -3.53511,-2.023828 -1.67719,-1.130579 -3.13429,-2.006372 -3.23811,-1.946206 -0.10361,0.06022 1.08548,0.968012 2.64289,2.017413 1.55741,1.049394 2.58496,1.924136 2.28342,1.943857 -0.30154,0.01926 -1.5961,-0.751221 -2.87686,-1.713202 -1.28077,-0.961993 -2.41296,-1.698908 -2.51602,-1.637584 -0.53375,0.31755 -3.23802,4.527668 -3.45556,5.379761 -0.55421,2.170354 -0.36918,3.038719 0.76592,3.596597 0.61035,0.29995 1.74578,1.023853 2.52315,1.608664 1.3784,1.036899 1.44369,1.047315 2.63142,0.419741 1.07393,-0.567446 1.01998,-0.470811 -0.45621,0.817093 -0.92078,0.803351 -1.62803,1.602554 -1.57167,1.776017 0.0563,0.173487 0.97557,0.867615 2.04269,1.542532 2.56822,1.624311 6.55354,4.890744 5.06644,4.152539 -2.60674,-1.294033 -2.64476,-1.279317 -3.86676,1.497407 -0.6208,1.410604 -1.267,2.644874 -1.43603,2.742864 -0.36212,0.2099 3.45594,3.47002 4.4022,3.75888 0.35711,0.109 0.88266,0.0213 1.16782,-0.19551 z m -17.00866,-7.892833 c 4.74538,-0.06725 8.85682,-0.261787 9.13652,-0.432457 0.35053,-0.213831 0.23492,-0.284896 -0.3718,-0.228555 -0.48425,0.04492 -3.98186,0.107302 -7.77244,0.138607 -12.576141,0.103824 -13.533089,0.137267 -11.492916,0.401773 1.029972,0.133572 5.755275,0.187824 10.500646,0.120426 z M 81.886563,88.833742 c -0.100819,-0.165646 -0.4454,-0.268666 -0.765781,-0.228945 -0.354035,0.04383 -0.282158,0.162006 0.183271,0.301147 0.42117,0.125877 0.6833,0.09349 0.58251,-0.07211 z M 79.424622,85.91659 c -0.0059,-0.473714 -0.123313,-0.796023 -0.260938,-0.716239 -0.272647,0.158028 -0.192067,1.459034 0.09486,1.532373 0.09723,0.02488 0.171906,-0.342423 0.166035,-0.816128 z m 4.162576,1.417327 c 0.841941,-0.488013 1.081622,-1.722067 0.423659,-2.181269 -1.416731,-0.988773 -3.850963,0.08999 -3.391809,1.503083 0.208452,0.641529 2.233225,1.104171 2.968147,0.678228 z m 12.612373,-0.23967 c 8.461579,-0.0488 7.666909,-0.59471 -1.046531,-0.71896 -3.357723,-0.04745 -6.280399,-0.131958 -6.494808,-0.186678 -0.214404,-0.05487 -1.057088,-1.073852 -1.872597,-2.264584 -0.815501,-1.190728 -1.237211,-1.630001 -0.937137,-0.976157 1.21244,2.641708 2.016214,3.879615 2.616428,4.029554 0.347454,0.08693 3.828056,0.139416 7.734639,0.116888 z m -10.652418,-2.99957 c -0.07764,-0.239151 -0.339776,-0.374661 -0.582373,-0.301127 -0.242595,0.07358 -0.377513,0.329349 -0.299797,0.568509 0.07764,0.239148 0.339775,0.374656 0.582372,0.301136 0.242593,-0.07357 0.377502,-0.329359 0.299801,-0.568517 z m 19.135687,2.98867 c -0.10079,-0.165638 -0.44537,-0.268662 -0.76574,-0.228941 -0.35406,0.04384 -0.28217,0.161993 0.18324,0.301144 0.42119,0.125919 0.68331,0.09349 0.5825,-0.07221 z M 85.147587,78.547922 c 0.658877,-0.745866 1.58773,-1.245608 2.489097,-1.339186 l 1.437953,-0.149291 -1.5547,-0.155809 c -1.324091,-0.132689 -1.652335,-0.347162 -2.212795,-1.445939 -0.438498,-0.859648 -1.185095,-1.501099 -2.237388,-1.922308 -1.322772,-0.529475 -1.833061,-0.512837 -3.141703,0.102352 -3.676599,1.728398 -1.908342,6.236149 2.408334,6.139472 1.332657,-0.02989 2.01533,-0.328376 2.811205,-1.229312 z m -6.259479,-0.729616 c -1.359194,-2.096678 0.370476,-4.380718 3.119466,-4.119266 2.66813,0.25376 4.161299,3.619989 2.230688,5.028916 -1.415825,1.033235 -4.421993,0.522126 -5.350154,-0.90965 z m 3.709909,0.286108 c 1.546172,-0.343634 1.642536,-0.514538 1.089413,-1.932224 -0.251415,-0.644425 -0.826073,-1.146664 -1.5128,-1.322175 -2.07832,-0.531186 -3.272189,1.106105 -1.925717,2.640951 0.897988,1.023633 0.716622,0.976273 2.349104,0.613448 z m 16.903518,-0.953752 c 4.086365,0.02472 7.267325,-0.05806 7.068815,-0.184047 -0.42671,-0.27076 -15.525213,-0.348798 -15.930354,-0.0823 -0.328961,0.21637 -0.563238,0.209318 8.861543,0.266386 z M 66.954107,104.86427 c -1.307515,-2.1485 -0.06963,-4.50435 2.559055,-4.870096 2.473998,-0.344194 4.895267,1.827526 4.365384,3.915496 -0.413705,1.63012 -0.964841,2.21306 -2.392295,2.53034 -1.951658,0.43374 -3.673588,-0.16503 -4.532147,-1.57573 z m 2.951532,0.6913 c -0.100828,-0.16561 -0.445388,-0.26866 -0.765773,-0.22896 -0.354039,0.0438 -0.282164,0.16199 0.183279,0.30117 0.421168,0.12591 0.68335,0.093 0.582448,-0.0726 z m -1.760658,-1.65519 c -0.120491,-0.60201 -0.326864,-0.9325 -0.458579,-0.73445 -0.131732,0.19809 -0.08454,0.67747 0.104641,1.06534 0.496438,1.01727 0.603691,0.91701 0.353928,-0.33087 z m 2.609291,0.28556 c 0.790235,-0.56211 0.607497,-1.79227 -0.300712,-2.0244 -0.396516,-0.10139 -0.907786,0.076 -1.136133,0.39437 -0.406972,0.56723 -0.06754,1.8236 0.53422,1.9774 0.167628,0.0429 0.573829,-0.11346 0.902627,-0.34737 z m 5.447574,-0.36969 c -0.577728,-0.94931 -0.656312,-1.56174 -0.307138,-2.39364 0.375668,-0.89502 0.319628,-1.15612 -0.281163,-1.30967 -3.463225,-0.885131 -4.619646,-4.959311 -1.861446,-6.558025 0.732013,-0.424299 0.592009,-0.492825 -1.625585,-0.795582 -1.334627,-0.182245 -3.054131,-0.145203 -3.82111,0.08237 -2.229833,0.661371 -4.58876,-0.154102 -5.913843,-2.04468 -1.402181,-2.000487 -1.125705,-3.48221 0.898006,-4.812844 2.764914,-1.817995 7.035317,-0.05391 7.563492,3.124434 0.110606,0.66546 0.215002,1.262886 0.232039,1.327574 0.0171,0.06464 0.892979,0.04631 1.946541,-0.04068 1.053562,-0.08715 4.104235,0.0155 6.779285,0.227993 2.675045,0.212497 7.104554,0.321829 9.84336,0.242953 9.212525,-0.265356 15.134886,-0.185948 16.196966,0.217208 2.33513,0.886331 0.20581,3.340425 -2.33488,2.691055 -1.19449,-0.305284 -5.001332,-0.340041 -14.566394,-0.133005 -3.684692,0.07975 -7.502433,0.06456 -8.483858,-0.0338 l -1.784419,-0.178939 0.766309,1.158053 c 0.815148,1.231824 1.005635,3.007526 0.41147,3.835611 -0.224831,0.313369 -0.04576,0.66977 0.476888,0.949251 0.460305,0.246068 1.219896,1.108261 1.688012,1.915901 0.654398,1.12896 0.732872,1.68505 0.339515,2.40571 -1.316696,2.41226 -4.727434,2.48028 -6.162041,0.12332 z m 1.555554,0.0532 c 0.0208,-0.0823 -0.218052,-0.47462 -0.530849,-0.87229 -0.515456,-0.65533 -0.533281,-0.64499 -0.190284,0.11035 0.360231,0.79325 0.638572,1.08737 0.721138,0.76203 z m 3.652505,-0.84213 c 0.07091,-0.27961 -0.023,-0.66292 -0.208746,-0.85184 -0.195381,-0.19871 -0.301224,-0.052 -0.251015,0.34764 0.04792,0.38181 -0.350555,0.99609 -0.8906,1.37271 l -0.977349,0.68162 1.099343,-0.52089 c 0.604648,-0.28653 1.157406,-0.74965 1.228363,-1.02923 z m -1.963989,-0.47212 c 0.136219,-0.53159 -0.863491,-1.50907 -1.290352,-1.26164 -0.439934,0.25497 0.244161,1.70883 0.787356,1.67327 0.222375,-0.0143 0.448702,-0.19978 0.502996,-0.41163 z m -1.503229,-3.771194 c 1.158005,-0.671225 1.47228,-2.481715 0.631308,-3.636974 -0.716407,-0.984188 -0.716632,-0.984157 -0.219254,0.01752 0.694757,1.398601 0.198349,2.986819 -1.080009,3.45535 -0.579321,0.212332 -0.844229,0.4395 -0.588667,0.504817 0.255463,0.06577 0.821038,-0.08771 1.256625,-0.340294 z m -4.130981,-2.436835 c 0.04489,-0.95352 0.314472,-1.297672 1.373453,-1.753623 0.724671,-0.311997 1.143111,-0.611861 0.929858,-0.666368 -0.213361,-0.05423 -0.915288,0.229134 -1.560051,0.63031 -0.86364,0.537347 -1.171633,1.01278 -1.169763,1.805692 0.0036,1.470568 0.357135,1.457292 0.426485,-0.01639 z m 3.497678,0.514234 c 0.451841,-1.091038 -0.563248,-1.863019 -1.633787,-1.242531 -1.070526,0.62051 -0.861626,1.859816 0.336237,1.994637 0.606761,0.06866 1.068673,-0.199425 1.297559,-0.752114 z M 64.626703,91.246341 c 0.02161,-0.08544 -0.215597,-0.333333 -0.527296,-0.550871 -0.324966,-0.226811 -0.503824,-0.201903 -0.419261,0.05839 0.141737,0.436191 0.865308,0.812748 0.946561,0.492589 z m 3.659902,0.445587 c 1.318202,-0.483138 1.702149,-1.88158 0.926851,-3.375792 l -0.594458,-1.145666 0.398804,1.25643 c 0.492169,1.550575 -0.183221,2.9185 -1.573605,3.187164 -0.564767,0.109112 -0.843261,0.258127 -0.618879,0.331153 0.224211,0.07349 0.881969,-0.04092 1.461287,-0.253289 z m -5.061763,-3.058815 c 0.03475,-0.62777 -0.07261,-0.933093 -0.238595,-0.678483 -0.299362,0.459134 -0.287581,1.701577 0.01688,1.779384 0.08719,0.02273 0.186969,-0.47312 0.221712,-1.100901 z m 4.478087,1.33035 c 0.501154,-0.481555 0.495139,-0.758767 -0.03022,-1.39164 -1.291305,-1.555647 -3.873797,-0.7654 -3.045494,0.931888 0.48399,0.991767 2.247668,1.255404 3.075696,0.459747 z m 7.832507,1.877428 c -0.100819,-0.165647 -0.445399,-0.268683 -0.765774,-0.228955 -0.354037,0.04384 -0.282164,0.162001 0.183268,0.30115 0.421184,0.125979 0.6833,0.09351 0.582507,-0.07211 z m 4.695995,0.586095 c 1.500922,0.141054 4.582475,0.193583 6.847877,0.117031 8.089934,-0.273731 13.645502,-0.27794 15.809592,-0.01198 1.20878,0.148578 2.33443,0.140541 2.50147,-0.0178 0.58692,-0.556263 -1.23531,-0.656491 -9.784937,-0.538148 -4.744988,0.06572 -10.919496,0.0055 -13.721127,-0.133924 -2.801634,-0.139329 -5.293744,-0.227991 -5.538021,-0.196995 -0.875957,0.111147 1.206677,0.530205 3.885131,0.781861 z M 64.506188,86.856003 c 0.66122,-0.498624 0.650491,-0.516266 -0.114529,-0.188194 -0.464256,0.199068 -0.861145,0.429133 -0.88197,0.511214 -0.08254,0.325339 0.302061,0.200651 0.996499,-0.32302 z M 125.40284,116.8391 c -1.0376,-0.5693 -3.69392,-1.72587 -5.90292,-2.57014 -2.20899,-0.84422 -3.97806,-1.68596 -3.93124,-1.87044 0.0467,-0.18452 0.51979,-0.56721 1.05108,-0.85055 0.53127,-0.28331 2.37557,-1.95026 4.09846,-3.70439 6.37059,-6.48598 7.54896,-7.62847 11.41701,-11.069089 3.28141,-2.9188 4.1255,-3.472203 4.97639,-3.262504 0.56355,0.138811 1.57081,0.0061 2.23828,-0.295143 l 1.21362,-0.547668 -1.44837,0.286569 c -1.92157,0.380172 -1.85842,0.405268 -5.91977,-2.353529 -9.75649,-6.627381 -10.65687,-7.318606 -10.47822,-8.044061 0.0968,-0.393097 1.13032,-1.549621 2.2967,-2.570004 1.16636,-1.020392 2.81019,-2.546688 3.65291,-3.39176 1.26585,-1.269347 1.85006,-1.535982 3.36022,-1.533603 1.00535,0.0018 7.26818,0.02979 13.91734,0.06261 l 12.08933,0.05969 1.00267,1.160817 c 0.55266,0.639841 1.05674,1.87995 1.12315,2.763057 0.0662,0.881216 0.35924,2.830408 0.65113,4.331501 0.57943,2.980705 0.49393,4.006709 -0.3332,4.015564 -0.29633,0.0032 -2.18173,0.001 -4.1898,-0.0048 -2.00805,-0.0059 -4.65017,0.10075 -5.87134,0.236908 -1.68661,0.548313 -5.36435,-1.205733 -2.36597,1.31017 1.2379,1.026252 1.80295,1.787944 1.68148,2.266599 -0.13831,0.544269 -0.7324,0.707528 -2.42578,0.666258 -1.23357,-0.03013 -2.76034,0.07914 -3.39286,0.242588 -0.83012,0.214523 -0.91096,0.29745 -0.2906,0.298121 2.81355,0.0031 5.53526,0.391086 7.06078,1.006731 1.48274,0.598355 1.71233,0.839708 1.51999,1.597769 -0.12472,0.491151 -1.51233,1.957582 -3.08372,3.25876 -1.57142,1.301169 -3.23488,2.837477 -3.69661,3.414017 -0.46169,0.57655 -2.18919,2.2454 -3.83885,3.70861 -3.01007,2.66987 -9.05825,8.71539 -11.4236,11.41859 -1.40809,1.6092 -1.7621,1.60642 -4.75768,-0.0372 z m 8.8542,-5.73674 c 0.83525,-0.94408 3.07357,-3.1186 4.97408,-4.83225 1.90048,-1.71363 3.9983,-3.64134 4.66179,-4.28377 l 1.20636,-1.16805 -3.83009,-3.00011 c -2.10658,-1.650052 -4.019,-3.146236 -4.24994,-3.324845 -0.52946,-0.40955 -4.78281,3.29126 -11.26858,9.804665 -2.75643,2.76821 -5.75899,5.72122 -6.67223,6.56224 l -1.66054,1.52913 3.73051,1.48583 c 2.05179,0.81725 4.50315,1.90275 5.44744,2.41229 l 1.71685,0.92645 2.21286,-2.19753 c 1.21707,-1.20861 2.89626,-2.96995 3.73149,-3.91405 z m 11.52463,-11.498551 c 0.31719,-0.100308 1.68035,-1.118987 3.02923,-2.263609 2.9638,-2.514869 2.80177,-2.877877 -1.61832,-3.625995 -3.29309,-0.557354 -7.80979,-0.06221 -8.04953,0.882312 -0.1358,0.535374 2.30696,2.801141 3.70317,3.434708 0.31292,0.142043 0.75691,0.543005 0.98661,0.891101 0.47651,0.722145 1.11495,0.94539 1.94885,0.681483 z m -4.29476,-8.298469 c 1.94778,-0.409954 4.25506,-0.69638 5.12735,-0.636482 1.01071,0.06947 -24.23106,-9.702592 12.24585,-4.216982 0.57844,0.147844 1.08716,0.129108 1.13047,-0.04158 0.0435,-0.170671 -0.19314,-2.172718 -0.52559,-4.448896 -0.416,-2.848283 -0.86725,-4.387186 -1.44764,-4.936132 -0.75953,-0.71841 -1.88537,-0.806827 -11.33725,-0.890309 -12.39343,-0.109514 -16.32002,-0.0016 -16.43506,0.451628 -0.0465,0.18339 -1.54474,1.64234 -3.32938,3.242217 l -3.24481,2.908854 1.68611,1.115744 c 4.48381,2.967053 10.79571,7.330024 10.93468,7.558433 0.37684,0.619232 1.89523,0.588103 5.19524,-0.106455 z m -79.50289,8.237022 c -0.684932,-0.661486 -0.278074,-2.955397 0.7132,-4.021016 0.951409,-1.022753 3.204882,-0.277428 3.922865,1.297512 0.314764,0.690446 0.516769,1.474205 0.44888,1.741712 -0.06787,0.26748 -0.618849,0.858765 -1.224367,1.314023 -1.162798,0.874207 -2.75303,0.737367 -3.860572,-0.332241 z m 2.162802,-0.08879 c -0.100818,-0.165646 -0.44539,-0.268672 -0.765765,-0.228964 -0.354046,0.04381 -0.282161,0.161992 0.183272,0.30114 0.421166,0.125907 0.683349,0.09299 0.582495,-0.07214 z m 0.223996,-1.343102 c 0.179094,-0.169757 0.169348,-0.467535 -0.02161,-0.661767 -0.190983,-0.194225 -0.417719,-0.07533 -0.503637,0.263116 -0.176209,0.694337 0.04009,0.858486 0.52525,0.398642 z m 1.4282,-0.163961 c -0.0489,-0.348273 -0.168259,-0.279058 -0.304482,0.176458 -0.123279,0.412241 -0.0871,0.670093 0.08032,0.573017 0.167472,-0.09698 0.268338,-0.434348 0.224145,-0.749477 z M 51.701837,94.749884 c -1.091879,-1.217566 -1.135442,-1.449022 -0.632647,-3.361567 0.657058,-2.499303 1.847032,-3.34981 4.277901,-3.057553 2.078706,0.249905 3.861652,1.71718 4.060344,3.341451 0.508919,4.16052 -4.824246,6.290669 -7.705598,3.077669 z m 5.013185,0.03868 c 0.771324,-0.41548 1.234419,-1.027859 1.400453,-1.85197 l 0.248068,-1.231265 -0.476076,1.141123 c -0.654477,1.568735 -1.865539,2.259255 -3.31333,1.889241 -1.599339,-0.408816 -2.430623,-1.700293 -2.077014,-3.226923 0.269225,-1.16235 0.251396,-1.184759 -0.324477,-0.40728 -1.675661,2.262259 1.85979,5.13201 4.54238,3.687063 z m -0.367529,-1.609942 c 0.787883,-0.846969 0.348164,-2.11004 -0.840318,-2.413795 -0.532976,-0.136309 -1.222149,0.01436 -1.531509,0.334344 -0.801502,0.829363 -0.35843,2.129161 0.829287,2.432712 0.539426,0.137868 1.233557,-0.02108 1.542542,-0.35326 z m -1.788089,-3.877849 c -0.07981,-0.13107 -0.540024,0.0015 -1.022705,0.295893 -0.838493,0.51051 -0.832039,0.52114 0.145103,0.238424 0.562479,-0.162742 0.957398,-0.403194 0.877592,-0.534318 z m 14.702173,-3.856625 c -1.01878,-0.736899 -1.675756,-2.470394 -1.379159,-3.639087 0.376543,-1.48377 2.906296,-2.709088 4.665036,-2.259595 2.071286,0.529396 3.498913,2.272006 3.111605,3.79815 -0.406617,1.602248 -1.257776,2.435688 -2.848495,2.789229 -1.477124,0.328278 -2.387085,0.15171 -3.548987,-0.688697 z m 0.271555,-2.019717 c -0.163156,-0.494206 -0.394248,-0.841976 -0.513532,-0.772826 -0.216005,0.125194 0.357734,1.555719 0.654355,1.631535 0.08567,0.02197 0.02239,-0.364505 -0.140831,-0.858709 z m 4.631308,0.562302 c -0.07981,-0.131144 -0.485098,0.09229 -0.900669,0.496415 -0.721902,0.702106 -0.715439,0.71273 0.145101,0.238426 0.495365,-0.273033 0.83537,-0.603717 0.755568,-0.734841 z m -1.559836,-0.582943 c 0.713133,-0.766623 0.514205,-1.186729 -0.710061,-1.499636 -1.150606,-0.294079 -1.754094,0.240687 -1.306544,1.157775 0.468768,0.960575 1.308621,1.102939 2.016606,0.341864 z m 1.995085,-0.967174 c 0.02085,-0.08204 -0.218051,-0.474619 -0.530847,-0.872309 -0.515458,-0.655329 -0.533282,-0.644997 -0.190284,0.110298 0.360226,0.793235 0.638564,1.087357 0.721132,0.762023 z m -1.587887,-1.788483 c -0.249693,-0.180595 -0.70381,-0.296664 -1.009158,-0.25792 -0.305349,0.03877 -0.101037,0.18648 0.453976,0.328335 0.555037,0.141868 0.804865,0.110191 0.555188,-0.07041 z m 82.226308,23.076206 c -0.65772,-4.493153 -0.7655,-4.321212 2.78255,-4.440317 5.09153,-0.170876 5.09814,-0.167302 5.48902,3.034887 0.49987,4.09754 0.52802,4.06526 -3.54886,4.11033 -1.95592,0.0217 -3.73611,-0.0141 -3.95597,-0.0795 -0.21986,-0.0653 -0.5649,-1.24674 -0.76673,-2.62558 z m 4.4376,1.60001 c 1.43825,-0.0168 2.69789,-0.0669 2.79918,-0.11135 0.10122,-0.0443 0.0291,-1.14776 -0.16036,-2.45191 -0.3803,-2.61728 -0.22629,-2.53327 -4.28945,-2.34089 -1.14881,0.0543 -2.06507,0.23489 -2.03607,0.40122 0.029,0.16622 0.20312,1.23344 0.3872,2.37159 0.18425,1.13807 0.41332,2.09012 0.50948,2.11559 0.0962,0.0255 1.35178,0.0326 2.79005,0.0157 z m 7.55202,0.19843 c -0.53478,-2.08217 -0.77378,-5.869757 -0.38313,-6.073494 0.60506,-0.315684 4.47387,-0.481465 6.49083,-0.278208 l 1.70975,0.172358 0.34264,3.181654 c 0.18838,1.74991 0.28979,3.38591 0.22527,3.63558 -0.0645,0.24969 -1.5074,0.40565 -3.20644,0.34663 -1.69902,-0.0591 -3.50823,-0.1058 -4.0204,-0.10378 -0.65251,0.004 -0.99929,-0.26114 -1.15841,-0.88076 z m 4.83166,-0.16128 c 2.68502,0.11736 2.55182,0.32473 2.10781,-3.28134 -0.1904,-1.54842 -0.40991,-1.9889 -0.92672,-1.86208 -0.3723,0.0914 -1.78688,0.12473 -3.14348,0.0744 -1.97091,-0.0733 -2.4458,0.0473 -2.36354,0.60022 0.0569,0.38055 0.18236,1.5236 0.27856,2.54012 0.12875,1.35519 0.36511,1.84458 0.8859,1.83486 0.39061,-0.008 1.81327,0.0357 3.16145,0.094 z M 101.14763,83.687746 c 1.07679,-0.189868 1.18888,-0.288819 0.55394,-0.488967 -0.73842,-0.232764 -0.72134,-0.26535 0.23566,-0.450154 0.76287,-0.147244 1.12407,-0.04706 1.38587,0.382698 0.47651,0.78301 -0.23362,1.105273 -2.05621,0.933184 l -1.469263,-0.138752 z m 53.45692,12.725939 c 0.005,-0.635456 -0.21281,-2.130548 -0.48345,-3.322405 -0.27063,-1.191888 -0.36145,-2.242745 -0.20191,-2.335239 0.3559,-0.206304 7.32584,-0.705555 7.95408,-0.569759 0.51019,0.110262 0.99815,5.197546 0.63557,6.626243 -0.21294,0.838863 -0.59693,0.928013 -3.86585,0.897314 -1.99626,-0.01906 -3.72346,-0.05779 -3.83828,-0.08745 -0.11475,-0.02934 -0.20489,-0.573267 -0.20016,-1.208715 z m 6.50511,-0.148379 c 0.59884,-0.333821 0.21507,-5.054133 -0.40539,-4.986729 -0.25152,0.02741 -1.54067,0.12617 -2.86465,0.219683 -1.32402,0.09364 -2.46651,0.18099 -2.53886,0.19442 -0.0724,0.01363 0.0272,1.102927 0.22168,2.421084 l 0.35307,2.396653 2.38626,0.006 c 1.31246,0.0032 2.59399,-0.109768 2.84788,-0.251256 z m 5.57656,0.710639 c -0.53209,-1.051908 -1.12219,-6.226713 -0.7356,-6.450801 0.15612,-0.09047 1.89692,-0.208344 3.8684,-0.261925 4.15953,-0.112943 4.0264,-0.225358 4.69469,3.963427 0.42643,2.672811 0.40418,2.856313 -0.3851,3.163817 -0.46072,0.179536 -1.08,0.26445 -1.37611,0.188897 -0.29615,-0.07586 -1.66237,-0.04596 -3.03607,0.0659 -1.37369,0.111942 -2.52119,0.197511 -2.54999,0.190104 -0.0288,-0.0076 -0.24493,-0.394074 -0.48032,-0.859387 z m 6.55539,-3.023662 c -0.23906,-1.354448 -0.47207,-2.526347 -0.51774,-2.604253 -0.0458,-0.07791 -1.37361,-0.06299 -2.9509,0.03316 l -2.86782,0.174665 0.29853,2.213842 c 0.16415,1.217646 0.34334,2.352016 0.39832,2.520845 0.0548,0.168855 1.44402,0.265894 3.08702,0.215668 l 2.98726,-0.0913 z m -9.99721,-7.958408 c -0.0397,-0.415269 -0.35699,-2.570392 -0.70538,-4.789127 -0.77891,-4.960861 -0.66195,-5.54502 1.1395,-5.687328 2.72827,-0.215404 2.86506,-0.04142 3.87336,4.927654 1.05574,5.202603 0.90108,6.954078 -0.61508,6.963827 -1.93843,0.01242 -3.61792,-0.63116 -3.69266,-1.415093 z m 2.98744,0.249943 c 1.29572,-0.138235 1.2917,-0.01361 0.1868,-5.819518 -0.67281,-3.535252 -1.1216,-4.172598 -2.60806,-3.703656 -0.49445,0.155988 -0.4891,1.155946 0.0258,4.840882 0.35694,2.554349 0.78823,4.679902 0.95852,4.723409 0.17027,0.0435 0.81687,0.02514 1.43692,-0.04105 z"
       id="path1"
       sodipodi:nodetypes="csscssscsssccsssscsssssssssssscsscssccssssssssssssssssssssscssccscccssscccccsscscscscsssscsssssssssscsscssscccccccccccccccscccssscsssscsscssssscssscsssscssssssssccscccccccccccscccsssscccscccccccccscssssscssssssssssssscsscsscccsssccccccsscssccscccscssccssscsccscccsssssccsssssscssccssscscscsccccscscccsscscsccccscsscccccccscssscccccccscccsccsscssscssscccsscsccscssscsssccscssssssssssscsssccsscsscsscsscscssssccscsssssssscscccccssssscscccssssssscsssssscccsscssssssssssssssscssssssssssscsscccsssccccccccscccccccsccccccssssscccssccscssssssccsscsccccccccscsscccccscccscccscssscccsssscc" /><path
       style="fill:#000000;stroke-width:1.34436;stroke-dasharray:none"
       d="m 114.80464,104.60892 c -0.84441,-0.64684 -1.77589,-1.43858 -2.06989,-1.75947 l -0.53462,-0.58341 1.18458,-2.423105 c 0.6515,-1.332675 1.32599,-2.491717 1.49889,-2.575622 0.17288,-0.0839 0.79551,0.0554 1.38364,0.309563 0.58814,0.254166 1.18548,0.451194 1.32743,0.437847 0.45829,-0.04309 -2.33173,-2.421792 -4.89009,-4.169144 l -2.48829,-1.699518 0.64135,-0.650171 c 0.35277,-0.357596 1.02749,-0.97345 1.49945,-1.368568 0.95789,-0.801974 0.74843,-1.056394 -0.45163,-0.548577 -0.43419,0.183734 -0.92519,0.256456 -1.09106,0.161616 -1.64826,-0.942414 -4.28044,-2.832063 -4.49507,-3.227029 -0.44673,-0.82207 0.0371,-2.523966 1.29257,-4.547666 1.56308,-2.519367 1.94939,-3.045933 2.24517,-3.060396 0.13918,-0.0068 1.27665,0.688039 2.52772,1.544095 2.29362,1.569408 3.50103,2.050276 2.58198,1.028296 -0.5819,-0.647051 -0.421,-0.627109 0.91222,0.113038 1.0633,0.59033 1.53134,0.616236 1.18892,0.06582 -0.0881,-0.141785 -1.44876,-1.186672 -3.02339,-2.321974 -1.57466,-1.135307 -2.86769,-2.159515 -2.87338,-2.276025 -0.006,-0.116485 0.68332,-0.898618 1.5312,-1.738021 0.84784,-0.839404 2.80029,-2.884035 4.33876,-4.543623 1.53848,-1.659591 3.59866,-3.764842 4.57818,-4.678336 0.97953,-0.913502 1.918,-1.911241 2.08549,-2.2172 0.30166,-0.551153 0.3405,-0.539365 4.20447,1.275417 2.14505,1.007446 4.30255,1.954019 4.79445,2.103498 0.86162,0.261831 0.88065,0.290414 0.51985,0.780431 -0.20597,0.279764 -2.22418,2.182092 -4.48479,4.227412 -5.13055,4.641873 -7.7435,7.114067 -9.27815,8.778396 -0.65732,0.712852 -1.31888,1.302139 -1.47006,1.309539 -0.30733,0.015 -0.52677,0.596564 -0.4922,1.304132 0.0129,0.257009 0.54819,0.942968 1.1903,1.524382 0.87777,0.794797 6.7967,5.106717 10.84987,7.904071 0.10157,0.0701 -0.68057,0.935484 -1.73806,1.923098 -1.05752,0.987608 -3.83971,3.804404 -6.18264,6.259526 -2.7203,2.85053 -4.44388,4.47282 -4.7689,4.48874 -0.27994,0.0134 -1.19987,-0.50431 -2.04427,-1.15111 z"
       id="path2" /><path
       style="fill:#000000;stroke-width:1.34436;stroke-dasharray:none"
       d="m 115.5373,104.94737 c -0.45933,-0.30203 -1.36722,-1.0348 -2.01753,-1.62829 l -1.18241,-1.07913 1.18961,-2.300772 c 0.65429,-1.265396 1.32219,-2.365067 1.48419,-2.443705 0.16202,-0.07864 0.68317,0.01484 1.1581,0.207705 0.97717,0.396819 1.57495,0.427877 1.55799,0.081 -0.0149,-0.30986 -3.21122,-2.888132 -5.48873,-4.42775 l -1.80639,-1.221146 0.75371,-0.700593 c 0.41455,-0.385327 1.05239,-1.041239 1.41745,-1.457576 l 0.66373,-0.756974 -1.20572,0.215594 c -1.30019,0.232481 -1.59913,0.09187 -4.60538,-2.166612 -1.32992,-0.999104 -1.43013,-1.470009 -0.69852,-3.281726 0.52778,-1.306875 2.34584,-4.193963 2.91266,-4.625327 0.24865,-0.18921 0.98515,0.154663 2.81561,1.314607 1.36342,0.863964 2.56563,1.566604 2.67159,1.561424 0.10596,-0.0051 0.18404,-0.185157 0.17356,-0.399929 -0.0172,-0.350037 0.0536,-0.353472 0.67971,-0.03326 0.85382,0.436525 1.18754,0.437612 1.16635,0.0038 -0.008,-0.181408 -1.31159,-1.297558 -2.89494,-2.48037 -1.58333,-1.182803 -2.85576,-2.232071 -2.82755,-2.331686 0.16485,-0.582764 12.48683,-13.148282 12.91388,-13.169167 0.15513,-0.0076 1.84088,0.700995 3.74613,1.574637 1.90522,0.873635 3.85482,1.722922 4.33241,1.887294 0.47758,0.164328 0.81754,0.401673 0.75546,0.52733 -0.0621,0.125655 -2.31664,2.253839 -5.01019,4.729302 -2.69354,2.475463 -6.21155,5.784187 -7.81779,7.352722 -3.02322,2.952265 -3.24783,3.343172 -2.60301,4.52979 0.26026,0.478881 4.46328,3.705656 9.10031,6.986515 l 2.49871,1.76795 -0.9779,0.996157 c -10.11813,10.306714 -11.14915,11.309104 -11.63675,11.313774 -0.21075,0.002 -0.75904,-0.24344 -1.21835,-0.54555 z"
       id="path3" /><path
       style="fill:#0d3b66;fill-opacity:1;stroke-width:1.34436;stroke-dasharray:none"
       d="m 114.90166,104.46811 c -0.77147,-0.58404 -1.65959,-1.33872 -1.97358,-1.67695 l -0.5709,-0.615 1.08173,-2.10469 c 1.43242,-2.787035 1.49334,-2.841513 2.66903,-2.386275 1.05892,0.410034 1.6364,0.448171 1.61971,0.106982 -0.0146,-0.29233 -2.69314,-2.4612 -5.26777,-4.264908 l -2.01041,-1.408451 0.74505,-0.692394 c 0.40977,-0.380816 1.04377,-1.031902 1.40889,-1.446851 l 0.66383,-0.754463 -1.26018,0.203589 c -1.25154,0.202256 -1.27493,0.193231 -3.4127,-1.310987 -2.47837,-1.743902 -2.6482,-2.120477 -1.84898,-4.100176 0.54007,-1.337811 2.35295,-4.220369 2.93096,-4.660395 0.25615,-0.194996 0.87311,0.08094 2.43682,1.089848 2.51334,1.621589 3.24431,1.936212 3.21732,1.384772 -0.0167,-0.340173 0.0615,-0.343212 0.68005,-0.02695 0.38434,0.196493 0.80764,0.351949 0.94062,0.345451 0.70583,-0.03452 -0.0858,-0.870273 -2.67,-2.8191 -1.58099,-1.192217 -2.85237,-2.248943 -2.82532,-2.348282 0.0614,-0.225202 7.68788,-8.227231 10.53211,-11.050624 1.15882,-1.150315 2.22554,-2.097284 2.37051,-2.104372 0.14497,-0.0071 2.11142,0.820386 4.36993,1.838851 2.2585,1.018467 4.22507,1.845947 4.37017,1.838856 0.53532,-0.02619 -0.12279,0.644911 -5.3485,5.453879 -7.10582,6.539201 -9.92723,9.340218 -10.15033,10.076971 -0.11953,0.394813 -0.0872,0.818813 0.093,1.202457 0.2775,0.592491 3.09984,2.805932 8.69526,6.819379 l 2.97416,2.133248 -0.97379,0.99187 c -10.19252,10.381615 -11.13892,11.300415 -11.66666,11.326215 -0.22946,0.0114 -1.04846,-0.45741 -1.81994,-1.04155 z"
       id="path4" /><path
       style="fill:#0d3b66;fill-opacity:1;stroke-width:0.950603;stroke-dasharray:none"
       d="m 134.72666,90.13654 c -1.25212,-0.894702 -4.1952,-2.917388 -6.54014,-4.494848 -2.34496,-1.577461 -4.26499,-2.898006 -4.26677,-2.934533 -9.6e-4,-0.03653 0.71805,-0.701317 1.59966,-1.477309 0.8816,-0.775985 2.40187,-2.174974 3.37837,-3.108872 l 1.77549,-1.697985 3.03614,-0.125 c 5.04725,-0.207816 20.64052,-0.06065 22.47799,0.212144 1.40507,0.208589 1.80984,0.470262 2.24633,1.45213 0.43825,0.985928 0.97645,3.765488 1.2771,6.595758 l 0.20908,1.968472 -0.56111,-0.09662 c -1.61023,-0.277226 -8.61609,-1.178096 -10.83059,-1.392691 -4.87558,-0.472486 -8.75471,-0.360883 -9.37487,0.269693 -0.7883,0.801563 0.7406,2.111835 4.79162,4.106394 l 2.26817,1.116754 -1.6786,0.198301 c -0.92324,0.109104 -2.51092,0.362874 -3.52825,0.56396 -1.01731,0.201088 -2.33414,0.389324 -2.92631,0.418277 l -1.07666,0.05266 z"
       id="path5" /><path
       style="fill:#1d85e2;fill-opacity:1;stroke-width:0.950603;stroke-dasharray:none"
       d="m 134.98255,90.208407 c -1.20962,-0.859835 -4.09952,-2.854166 -6.42202,-4.431841 -2.32251,-1.577682 -4.28018,-2.921604 -4.35043,-2.986505 -0.0703,-0.0649 0.48795,-0.671934 1.24041,-1.348982 0.75246,-0.677039 2.27216,-2.085606 3.37713,-3.130146 l 2.009,-1.899159 3.77374,-0.06205 c 9.53635,-0.156783 20.7619,0.04175 22.09268,0.390734 0.45912,0.120396 1.00496,0.401309 1.21297,0.624248 0.65478,0.701746 1.09401,2.630822 1.80766,7.939382 l 0.14586,1.085454 -3.66154,-0.496424 c -9.88249,-1.339854 -15.71521,-1.593679 -17.02298,-0.740707 -0.33999,0.22173 -0.32733,0.863808 0.027,1.36931 0.39288,0.56048 2.28234,1.757015 4.54884,2.880641 2.33511,1.15764 2.48532,1.019395 -1.79685,1.653825 -1.6496,0.244389 -3.40043,0.505378 -3.89075,0.579959 l -0.8915,0.135586 z"
       id="path6" /><path
       style="fill:#45d03a;fill-opacity:1;stroke-width:0.950603;stroke-dasharray:none"
       d="m 125.94708,115.90783 c -1.81341,-0.90733 -4.30521,-1.97221 -7.73502,-3.30553 l -0.56705,-0.22045 2.40212,-2.32522 c 1.32118,-1.27885 4.48378,-4.37595 7.02805,-6.88242 4.68143,-4.611871 7.4149,-7.092955 8.94325,-8.117538 l 0.83918,-0.56259 2.86949,2.242465 c 1.5782,1.233359 3.3903,2.66194 4.02686,3.174626 l 1.15736,0.932167 -0.90606,0.86744 c -0.49832,0.47708 -2.52328,2.35807 -4.4999,4.18 -1.97658,1.82194 -4.53691,4.31244 -5.68962,5.53447 -2.8112,2.98024 -5.44451,5.62142 -5.57854,5.59516 -0.06,-0.0113 -1.0906,-0.51244 -2.29011,-1.1126 z"
       id="path7" /><path
       style="fill:#bee2c6;fill-opacity:1;stroke-width:1.34436;stroke-dasharray:none"
       d="m 144.05447,98.899219 c -0.29897,-0.345792 -1.05236,-0.941198 -1.67416,-1.32309 -1.20006,-0.737028 -3.07744,-2.499389 -3.09741,-2.907603 -0.0632,-1.293338 9.76317,-1.231377 11.05475,0.0697 0.32768,0.330119 0.32223,0.431018 -0.0504,0.937402 -0.22982,0.3121 -1.29893,1.29165 -2.3758,2.176765 -2.22694,1.830398 -2.99829,2.039734 -3.85676,1.046829 z"
       id="path8" /><path
       style="fill:#f4f4f9;fill-opacity:1;stroke-width:1.34436;stroke-dasharray:none"
       d="m 170.47369,105.21156 c -0.97599,-0.0348 -1.85568,-0.14531 -1.95488,-0.2458 -0.26064,-0.26395 -0.72123,-4.09344 -0.5254,-4.36664 0.0908,-0.12661 1.41947,-0.20783 2.95256,-0.18065 l 2.78741,0.0496 0.14912,0.7986 c 0.34317,1.83762 0.44233,3.18083 0.26428,3.58192 -0.20135,0.4536 -0.44618,0.47779 -3.6734,0.36294 z"
       id="path9" /><path
       style="fill:#f4f4f9;fill-opacity:1;stroke-width:1.34436;stroke-dasharray:none"
       d="m 157.17461,105.11756 c -0.31001,-0.19678 -0.86958,-2.3784 -0.93073,-3.62845 l -0.0358,-0.73296 2.47684,-0.11717 c 1.36225,-0.0647 2.6229,-0.0248 2.80144,0.0883 0.35806,0.22674 0.79159,1.89353 0.88011,3.38385 l 0.0569,0.95937 -2.47684,0.11717 c -1.36226,0.0647 -2.60962,0.0329 -2.77195,-0.0703 z"
       id="path10" /><path
       style="fill:#f4f4f9;fill-opacity:1;stroke-width:1.34436;stroke-dasharray:none"
       d="m 155.85108,95.329677 c -0.0968,-0.599478 -0.26177,-1.62135 -0.36755,-2.270637 l -0.19193,-1.180593 2.59646,-0.24235 c 3.18542,-0.297331 3.21767,-0.272934 3.25701,2.462377 l 0.028,1.924817 -2.57308,0.198234 -2.57307,0.198271 z"
       id="path11" /><path
       style="fill:#f4f4f9;fill-opacity:1;stroke-width:1.34436;stroke-dasharray:none"
       d="m 168.64861,96.369543 c -0.98187,-0.06635 -1.0164,-0.13623 -1.36572,-2.76179 l -0.24579,-1.848136 2.7725,-0.1356 c 3.10874,-0.152048 2.869,-0.301441 3.24484,2.022172 0.11346,0.700007 0.27756,1.586794 0.36507,1.970576 l 0.15921,0.697793 -2.03627,0.05651 c -1.11995,0.03101 -2.42217,0.0304 -2.8938,-0.0015 z"
       id="path12" /><path
       style="fill:#f4f4f9;fill-opacity:1;stroke-width:1.34436;stroke-dasharray:none"
       d="m 164.38982,84.140461 c -0.2234,-1.160259 -0.46967,-3.26102 -0.54701,-4.668398 l -0.14075,-2.558846 0.61525,-0.109732 c 0.45265,-0.08073 0.72495,0.0571 1.0304,0.521571 0.50849,0.773204 1.59157,5.926646 1.57887,7.512498 l -0.009,1.155029 -1.06066,0.128709 -1.06061,0.128721 z"
       id="path13" /><path
       style="fill:#bee2c6;fill-opacity:1;stroke-width:2.38518;stroke-dasharray:none"
       d=""
       id="path14"
       transform="scale(0.26458333)" /><path
       style="fill:#0d3b66;fill-opacity:1;stroke-width:0.168044;stroke-dasharray:none"
       d="m 81.67018,79.738532 c -0.80232,-0.08642 -1.524852,-0.326 -2.094483,-0.694584 L 79.36343,78.906601 79.350058,78.63211 c -0.01036,-0.211401 -0.005,-0.269231 0.02378,-0.25162 0.02047,0.0125 0.117889,0.07914 0.216518,0.14787 0.525827,0.36654 1.318029,0.637749 2.128494,0.728689 0.458399,0.05149 1.36902,-0.01748 1.734277,-0.131198 1.159022,-0.360926 1.771404,-1.259197 1.653699,-2.425737 -0.134079,-1.328801 -1.229171,-2.575578 -2.566873,-2.922416 -0.504823,-0.130894 -1.27801,-0.1411 -1.811934,-0.02393 -0.529058,0.116086 -1.034553,0.353676 -1.396813,0.656482 l -0.166398,0.13909 -0.01836,-0.196749 c -0.02203,-0.23608 -0.03369,-0.22181 0.389569,-0.477038 0.359908,-0.217021 1.053946,-0.519952 1.395113,-0.608939 0.324477,-0.08463 0.789977,-0.102645 1.098895,-0.04252 0.34169,0.06644 0.941925,0.277848 1.365827,0.480937 0.879845,0.421469 1.45163,0.953644 1.891318,1.760289 0.407464,0.74753 0.630647,1.007901 1.01936,1.18922 0.296675,0.138389 0.596815,0.198093 1.432313,0.284877 0.399461,0.04153 0.804651,0.08405 0.90043,0.09448 l 0.174137,0.01895 -0.157405,0.02781 c -0.08657,0.01529 -0.422343,0.05585 -0.746131,0.09024 -0.34623,0.03666 -0.69427,0.09238 -0.844978,0.135063 -0.719911,0.204189 -1.39123,0.637192 -1.972889,1.272537 -0.51315,0.560512 -0.957529,0.854861 -1.565825,1.037179 -0.29957,0.08979 -1.453326,0.166098 -1.855923,0.122731 z"
       id="path15" /><path
       style="fill:#f4f4f9;fill-opacity:1;stroke-width:0.33609;stroke-dasharray:none"
       d="m 102.1966,77.122696 c -3.970253,0.01153 -11.125413,-0.06015 -11.43219,-0.114526 -0.152688,-0.02703 -0.159427,-0.03737 -0.06637,-0.101763 0.212427,-0.146936 6.347965,-0.200852 11.685036,-0.102685 1.92662,0.03543 3.94176,0.116962 3.98675,0.161279 0.0421,0.04145 -2.93942,0.154097 -4.17321,0.157693 z"
       id="path16" /><path
       style="fill:#f4f4f9;fill-opacity:1;stroke-width:0.33609;stroke-dasharray:none"
       d="m 97.890072,87.047085 c -1.297645,0.01842 -4.991693,0.01985 -6.379494,0.0025 -2.040499,-0.02546 -2.931925,-0.07075 -3.150291,-0.160023 -0.22965,-0.09388 -0.62405,-0.524937 -0.976069,-1.066781 -0.419397,-0.64555 -1.60233,-2.993679 -1.54412,-3.065078 0.02295,-0.02817 0.369245,0.430415 1.372209,1.817112 0.601275,0.831328 1.231257,1.562162 1.399726,1.623811 0.164572,0.06019 2.469345,0.137067 5.839755,0.194707 4.049582,0.06929 6.541212,0.180908 7.319402,0.327972 l 0.32049,0.06057 -0.25687,0.05988 c -0.24086,0.05612 -2.793855,0.189015 -3.944743,0.205335 z"
       id="path17" /><path
       style="fill:#f4f4f9;fill-opacity:1;stroke-width:0.950603;stroke-dasharray:none"
       d="m 103.4145,92.488082 c -2.31803,-0.227312 -5.664912,-0.260921 -12.171584,-0.122207 -7.512236,0.160165 -9.923675,0.11502 -12.585364,-0.235537 -2.425849,-0.319502 -1.686917,-0.41194 2.0771,-0.259913 5.008878,0.202349 7.93328,0.238616 14.983777,0.18583 8.142591,-0.06096 9.664671,-0.0015 9.481091,0.370109 -0.0947,0.191412 -0.36619,0.200832 -1.78502,0.06171 z"
       id="path18" /><path
       style="fill:#f4f4f9;fill-opacity:1;stroke-width:0.950603;stroke-dasharray:none"
       d="m 100.72989,97.696249 c -4.272078,0.0649 -10.402868,-0.008 -10.525165,-0.125194 -0.111276,-0.106581 1.067035,-0.134061 7.815736,-0.181986 3.456599,-0.02457 7.215199,-0.08806 8.352399,-0.141091 1.19794,-0.05598 2.11377,-0.02235 2.17722,0.07967 0.12292,0.197566 -1.45459,0.271931 -7.82019,0.3686 z"
       id="path19" /><path
       style="fill:#f4f4f9;fill-opacity:1;stroke-width:0.950603;stroke-dasharray:none"
       d="m 85.877064,111.19853 c -0.597689,-0.3109 -1.612448,-1.24995 -1.62486,-1.50376 -0.0048,-0.0986 0.203298,0.0247 0.462481,0.27444 1.106328,1.06524 3.38328,1.43948 4.479538,0.73629 1.434088,-0.91991 1.551339,-3.40442 0.231989,-4.9158 -0.883867,-1.01255 -0.310406,-0.69214 0.785186,0.43865 0.564564,0.58275 1.326928,1.19259 1.694136,1.35523 0.918697,0.40684 2.649474,0.54204 7.048691,0.5504 4.958965,0.009 13.842035,0.22272 14.877455,0.35721 1.95099,0.25385 -3.77837,0.3462 -11.24499,0.1822 -4.323125,-0.095 -8.611825,-0.10969 -9.530397,-0.0328 l -1.670146,0.13985 -0.736241,0.98431 c -0.404936,0.54138 -0.99738,1.12141 -1.316545,1.28903 -0.774548,0.40664 -2.790422,0.49106 -3.456305,0.14468 z"
       id="path20" /><path
       style="fill:#0d3b66;fill-opacity:1;stroke-width:0.237651;stroke-dasharray:none"
       d="m 86.92561,111.56145 c -1.179582,-0.12684 -2.128044,-0.76095 -2.779657,-1.85957 -0.427488,-0.72051 -0.660807,-1.42293 -0.704328,-2.12036 -0.05136,-0.8231 0.107385,-1.34353 0.5904,-1.93548 0.335493,-0.41118 0.594396,-0.60581 1.087831,-0.81776 0.683305,-0.29351 1.806004,-0.42305 2.533807,-0.29232 0.895171,0.16078 1.51455,0.50981 2.277479,1.28342 0.289406,0.29348 0.527367,0.55763 0.528805,0.58704 0.0014,0.0293 -0.243512,-0.18967 -0.544318,-0.48684 -0.522906,-0.51659 -0.882767,-0.80797 -0.928537,-0.75182 -0.01165,0.0144 0.01108,0.0877 0.05067,0.1629 0.03957,0.0753 0.06239,0.1372 0.05067,0.13779 -0.01161,3.5e-4 -0.117315,-0.0682 -0.234674,-0.15283 -0.117353,-0.0848 -0.357694,-0.2089 -0.534118,-0.27608 -0.975258,-0.37168 -2.685464,0.10588 -3.816268,1.06582 -0.340614,0.28912 -0.558683,0.5738 -0.6764,0.88303 -0.06841,0.17961 -0.07775,0.28323 -0.05639,0.62245 0.04478,0.7112 0.31768,1.45703 0.733604,2.00513 0.109522,0.14429 0.192812,0.27015 0.185117,0.27964 -0.0076,0.009 -0.08634,-0.0427 -0.174812,-0.11615 -0.08844,-0.0733 -0.184143,-0.13223 -0.212618,-0.13094 -0.32037,0.0161 0.938293,1.26377 1.586889,1.57357 0.357244,0.17061 0.896806,0.22753 1.753906,0.18519 0.789783,-0.0391 1.265088,-0.13153 1.662953,-0.32291 0.281016,-0.13517 0.669263,-0.49118 1.118574,-1.02574 0.217493,-0.25876 0.396248,-0.45391 0.397236,-0.4337 0.0038,0.0767 -0.320488,0.54807 -0.529292,0.76906 -0.283042,0.29962 -0.723652,0.64797 -0.982242,0.77661 -0.489949,0.24375 -1.782581,0.45583 -2.384315,0.39118 z"
       id="path21" /><path
       style="fill:#0d3b66;fill-opacity:1;stroke-width:0.237651;stroke-dasharray:none"
       d="m 84.662646,101.2638 c -0.379476,-0.40225 -0.594224,-0.72324 -0.670931,-1.00288 -0.108559,-0.395712 0.06312,-0.578834 0.309361,-0.329911 0.176154,0.178031 0.337198,0.473171 0.543664,0.996361 0.182655,0.46284 0.22916,0.65535 0.159145,0.65876 -0.01936,-8e-5 -0.173098,-0.14411 -0.341241,-0.32233 z"
       id="path22" /><path
       style="fill:#0d3b66;fill-opacity:1;stroke-width:0.237651;stroke-dasharray:none"
       d="m 84.557777,97.579167 c -0.01398,-0.285098 0.319065,-0.473721 0.953369,-0.540007 0.299261,-0.03128 0.542392,-0.02805 0.815108,0.01116 0.519988,0.07454 1.039558,0.305722 0.945826,0.420657 -0.01414,0.01727 -0.242826,-0.0036 -0.508198,-0.04659 -0.491792,-0.0797 -1.113201,-0.08232 -1.431162,-0.006 -0.09597,0.02302 -0.280356,0.09603 -0.409704,0.162209 -0.307995,0.157581 -0.357465,0.157382 -0.365223,-0.0015 z"
       id="path23" /><path
       style="fill:#0d3b66;fill-opacity:1;stroke-width:0.237651;stroke-dasharray:none"
       d="m 90.585143,102.28859 c 0.452165,-0.22391 0.874008,-0.34166 1.419663,-0.39634 0.284894,-0.0285 0.518666,-0.0378 0.519523,-0.0205 0.0054,0.10937 -1.063259,0.39783 -1.853442,0.50037 l -0.344812,0.0448 z"
       id="path24" /><path
       style="fill:#0d3b66;fill-opacity:1;stroke-width:0.237651;stroke-dasharray:none"
       d="m 106.34422,102.30846 c -3.85453,0.085 -7.91698,-0.0936 -8.585045,-0.37751 l -0.152506,-0.065 0.120128,-0.0484 c 0.227346,-0.0919 1.714731,-0.0808 4.553643,0.0353 2.29209,0.0933 3.96057,0.1345 5.21575,0.12865 0.98026,-0.005 1.92147,0.0551 1.99369,0.12649 0.0396,0.0391 -0.94873,0.14383 -1.51452,0.16142 -0.21302,0.006 -0.94698,0.0242 -1.63107,0.0393 z"
       id="path25" /><path
       style="fill:#0d3b66;fill-opacity:1;stroke-width:0.168044;stroke-dasharray:none"
       d="m 79.107904,78.698928 c -0.52457,-0.451131 -0.900419,-1.030406 -1.066519,-1.643764 -0.07937,-0.293106 -0.105658,-0.853145 -0.05304,-1.127553 0.118427,-0.616656 0.476738,-1.224989 0.97005,-1.646915 l 0.171572,-0.146741 0.01021,0.208908 0.01021,0.208908 -0.183966,0.226586 c -0.433427,0.533842 -0.617878,1.142277 -0.545012,1.797791 0.04129,0.371235 0.110551,0.594908 0.301697,0.973922 0.124766,0.247406 0.214259,0.37722 0.388875,0.564111 l 0.22681,0.242749 0.0051,0.274661 0.0051,0.27466 z"
       id="path26" /><path
       style="fill:#bee2c6;fill-opacity:1;stroke-width:0.168044;stroke-dasharray:none"
       d="m 79.16223,86.604312 c -0.08821,-0.143558 -0.114113,-0.274332 -0.133708,-0.674983 -0.01906,-0.389779 0.02633,-0.630446 0.132247,-0.700653 0.08616,-0.0571 0.154558,0.04478 0.211799,0.315549 0.08178,0.386829 0.01054,1.153508 -0.107701,1.159293 -0.02225,0.0011 -0.06846,-0.04357 -0.102661,-0.09923 z"
       id="path27" /><path
       style="fill:#0d3b66;fill-opacity:1;stroke-width:0.168044;stroke-dasharray:none"
       d="m 81.543337,88.949621 c -0.01612,-0.0051 -0.121419,-0.03473 -0.234147,-0.06545 -0.255877,-0.0702 -0.425739,-0.167945 -0.368836,-0.212327 0.06442,-0.0502 0.463251,-0.05632 0.631733,-0.0097 0.159686,0.04418 0.345952,0.193779 0.316212,0.253982 -0.01491,0.03025 -0.275205,0.05557 -0.344968,0.03349 z"
       id="path28" /></g></svg>
